<!DOCTYPE svg PUBLIC "-//W3C//DTD SVG 20010904//EN" "http://www.w3.org/TR/2001/REC-SVG-20010904/DTD/svg10.dtd">
<svg version="1.0" xmlns="http://www.w3.org/2000/svg" width="32px" height="55px" viewBox="0 0 320 550" preserveAspectRatio="xMidYMid meet">
<g id="layer101" fill="#76d176" stroke="none">
 <path d="M0 275 l0 -275 160 0 160 0 0 275 0 275 -160 0 -160 0 0 -275z"/>
 </g>
<g id="layer102" fill="#9fdf9f" stroke="none">
 <path d="M0 275 l0 -275 160 0 160 0 0 275 0 275 -160 0 -160 0 0 -275z m280 210 c0 -8 -43 -55 -95 -106 -52 -50 -97 -101 -101 -112 -5 -17 12 -39 95 -118 55 -54 101 -102 101 -108 0 -21 -27 -11 -57 22 -17 17 -67 68 -112 112 -45 43 -81 82 -81 87 0 9 232 238 243 238 4 0 7 -7 7 -15z"/>
 </g>
<g id="layer103" fill="#f7fcf7" stroke="none">
 <path d="M0 275 l0 -275 131 0 130 0 -120 118 c-92 89 -121 124 -121 143 0 19 25 49 97 120 129 125 152 142 169 128 27 -22 13 -46 -86 -143 -55 -54 -100 -101 -100 -105 0 -3 45 -51 101 -106 88 -88 99 -103 95 -127 -4 -20 -1 -28 9 -28 13 0 15 39 15 275 l0 275 -160 0 -160 0 0 -275z"/>
 </g>

</svg>